<svg width="65" height="24" viewBox="0 0 65 24" fill="none" xmlns="http://www.w3.org/2000/svg">
<path d="M11.625 4H4.625C4.09457 4 3.58586 4.21071 3.21079 4.58579C2.83571 4.96086 2.625 5.46957 2.625 6V20C2.625 20.5304 2.83571 21.0391 3.21079 21.4142C3.58586 21.7893 4.09457 22 4.625 22H18.625C19.1554 22 19.6641 21.7893 20.0392 21.4142C20.4143 21.0391 20.625 20.5304 20.625 20V13" stroke="#624DE3" stroke-width="2" stroke-linecap="round" stroke-linejoin="round"/>
<path d="M19.125 2.50023C19.5228 2.1024 20.0624 1.87891 20.625 1.87891C21.1876 1.87891 21.7272 2.1024 22.125 2.50023C22.5228 2.89805 22.7463 3.43762 22.7463 4.00023C22.7463 4.56284 22.5228 5.1024 22.125 5.50023L12.625 15.0002L8.625 16.0002L9.625 12.0002L19.125 2.50023Z" stroke="#624DE3" stroke-width="2" stroke-linecap="round" stroke-linejoin="round"/>
<path d="M43.625 6H45.625H61.625" stroke="#A30D11" stroke-width="2" stroke-linecap="round" stroke-linejoin="round"/>
<path d="M48.625 6V4C48.625 3.46957 48.8357 2.96086 49.2108 2.58579C49.5859 2.21071 50.0946 2 50.625 2H54.625C55.1554 2 55.6641 2.21071 56.0392 2.58579C56.4143 2.96086 56.625 3.46957 56.625 4V6M59.625 6V20C59.625 20.5304 59.4143 21.0391 59.0392 21.4142C58.6641 21.7893 58.1554 22 57.625 22H47.625C47.0946 22 46.5859 21.7893 46.2108 21.4142C45.8357 21.0391 45.625 20.5304 45.625 20V6H59.625Z" stroke="#A30D11" stroke-width="2" stroke-linecap="round" stroke-linejoin="round"/>
<path d="M50.625 11V17" stroke="#A30D11" stroke-width="2" stroke-linecap="round" stroke-linejoin="round"/>
<path d="M54.625 11V17" stroke="#A30D11" stroke-width="2" stroke-linecap="round" stroke-linejoin="round"/>
</svg>
